<svg width="1604" height="1806" viewBox="0 0 1604 1806" fill="none" xmlns="http://www.w3.org/2000/svg">
<rect width="183.083" height="1805.68" transform="translate(710)" fill="#20272C"/>
<line x1="719.114" y1="4.86896e-08" x2="719.114" y2="1805.68" stroke="white" stroke-width="2.22778"/>
<line x1="802.877" y1="3.65172e-08" x2="802.877" y2="43.2352" stroke="white" stroke-width="1.67083"/>
<line x1="802.877" y1="110.068" x2="802.877" y2="153.304" stroke="white" stroke-width="1.67083"/>
<line x1="802.877" y1="220.137" x2="802.877" y2="263.372" stroke="white" stroke-width="1.67083"/>
<line x1="802.877" y1="330.205" x2="802.877" y2="373.44" stroke="white" stroke-width="1.67083"/>
<line x1="802.877" y1="440.273" x2="802.877" y2="483.509" stroke="white" stroke-width="1.67083"/>
<line x1="802.877" y1="550.342" x2="802.877" y2="593.577" stroke="white" stroke-width="1.67083"/>
<line x1="802.877" y1="660.412" x2="802.877" y2="703.647" stroke="white" stroke-width="1.67083"/>
<line x1="802.877" y1="770.48" x2="802.877" y2="813.716" stroke="white" stroke-width="1.67083"/>
<line x1="802.877" y1="880.549" x2="802.877" y2="923.784" stroke="white" stroke-width="1.67083"/>
<line x1="802.877" y1="990.617" x2="802.877" y2="1033.85" stroke="white" stroke-width="1.67083"/>
<line x1="802.877" y1="1100.69" x2="802.877" y2="1143.92" stroke="white" stroke-width="1.67083"/>
<line x1="802.877" y1="1210.75" x2="802.877" y2="1253.99" stroke="white" stroke-width="1.67083"/>
<line x1="802.877" y1="1320.82" x2="802.877" y2="1364.06" stroke="white" stroke-width="1.67083"/>
<line x1="802.877" y1="1430.89" x2="802.877" y2="1474.13" stroke="white" stroke-width="1.67083"/>
<line x1="802.877" y1="1540.96" x2="802.877" y2="1584.19" stroke="white" stroke-width="1.67083"/>
<line x1="802.877" y1="1651.03" x2="802.877" y2="1694.26" stroke="white" stroke-width="1.67083"/>
<line x1="802.877" y1="1761.1" x2="802.877" y2="1804.33" stroke="white" stroke-width="1.67083"/>
<line x1="886.197" y1="4.86896e-08" x2="886.197" y2="1805.68" stroke="white" stroke-width="2.22778"/>
</svg>
